# xmcd
#
# Track frame offsets: 
#        150
#        17509
#        49313
#        95642
#        110208
#        131582
#        153244
#        186762
#        208775
#
# Disc length: 3095 seconds
#
# Revision: 1
# Processed by: cddbd v1.5.2PL0 Copyright (c) Steve Scherf et al.
# Submitted via: ExactAudioCopy v1.0b3
#
DISCID=7c0c1509
DTITLE=Climax Blues Band - Live At Rockpalast
DYEAR=2013
DGENRE=Blues
TTITLE0=I Am Constant
TTITLE1=Amerita Sense Of Direction
TTITLE2=Running Out Of Time
TTITLE3=Country Hat
TTITLE4=Come On In My Kitchen
TTITLE5=Using The Power
TTITLE6=Going To New York
TTITLE7=Seventh Son
TTITLE8=All The Time In The World Get Back
EXTD=
EXTT0=
EXTT1=
EXTT2=
EXTT3=
EXTT4=
EXTT5=
EXTT6=
EXTT7=
EXTT8=
PLAYORDER=
